<?xml version="1.0" encoding="iso-8859-1"?>
<!-- Generator: Adobe Illustrator 22.1.0, SVG Export Plug-In . SVG Version: 6.00 Build 0)  -->
<svg version="1.1" xmlns="http://www.w3.org/2000/svg" xmlns:xlink="http://www.w3.org/1999/xlink" x="0px" y="0px"
	 viewBox="0 0 322.971 224.541" style="enable-background:new 0 0 322.971 224.541;" xml:space="preserve">
<g id="Info_-_DO_NOT_USE">
</g>
<g id="Layer_1">
	<g>
		<g>
			<path style="fill:#192833;" d="M26.14,170.132h-4.817v-21.418h8.413c2.922,0,4.464,0.417,5.844,1.638
				c1.477,1.317,2.312,3.276,2.312,5.587c0,1.959-0.61,3.661-1.83,4.945c-1.284,1.349-2.922,1.959-5.395,1.959H26.14V170.132z
				 M29.929,158.732c1.895,0,3.05-1.123,3.05-2.954c0-1.863-1.156-2.954-3.05-2.954H26.14v5.908H29.929z"/>
			<path style="fill:#192833;" d="M44.992,155.939c1.285-1.22,2.505-1.734,4.11-1.734c1.573,0,2.986,0.578,3.982,1.67
				c0.995,1.092,1.381,2.409,1.381,4.72v9.537h-4.56v-8.702c0-1.445-0.128-2.023-0.514-2.569c-0.385-0.514-1.028-0.802-1.798-0.802
				s-1.509,0.289-1.991,0.771c-0.514,0.545-0.61,0.995-0.61,2.6v8.702h-4.559v-21.418h4.559V155.939z"/>
			<path style="fill:#192833;" d="M62.881,152.471h-4.559v-3.757h4.559V152.471z M62.881,170.132h-4.559v-15.51h4.559V170.132z"/>
			<path style="fill:#192833;" d="M71.296,170.132h-4.56v-21.418h4.56V170.132z"/>
			<path style="fill:#192833;" d="M75.182,159.503c0.289-3.564,2.505-5.298,6.872-5.298c2.344,0,4.142,0.546,5.363,1.605
				c1.124,0.996,1.541,2.248,1.541,4.528v7.129c0,1.669,0.064,1.894,0.578,2.665H84.88c-0.193-0.546-0.193-0.642-0.353-1.22
				c-1.509,1.253-2.601,1.638-4.431,1.638c-3.436,0-5.716-1.927-5.716-4.849s1.83-4.431,6.165-5.138l2.472-0.417
				c1.028-0.16,1.381-0.417,1.381-1.06c0-0.867-0.899-1.413-2.376-1.413c-1.67,0-2.569,0.578-2.762,1.83H75.182z M84.527,162.746
				c-0.482,0.193-0.899,0.321-1.67,0.482l-1.638,0.353c-1.637,0.385-2.344,0.931-2.344,1.862c0,1.028,0.867,1.638,2.312,1.638
				c1.509,0,2.601-0.642,3.339-1.959V162.746z"/>
			<path style="fill:#192833;" d="M107.521,170.132h-4.367v-1.67c-1.156,1.509-2.376,2.087-4.271,2.087
				c-4.078,0-6.807-3.243-6.807-8.156c0-4.946,2.762-8.22,6.936-8.22c1.67,0,2.858,0.481,3.95,1.605v-7.065h4.559V170.132z
				 M96.571,162.361c0,2.73,1.284,4.495,3.275,4.495c1.959,0,3.276-1.798,3.276-4.431c0-2.761-1.285-4.56-3.276-4.56
				S96.571,159.632,96.571,162.361z"/>
			<path style="fill:#192833;" d="M115.198,163.71c0.289,2.12,1.541,3.276,3.5,3.276c1.22,0,2.087-0.417,2.697-1.381h4.624
				c-0.867,3.018-3.757,4.945-7.45,4.945c-4.785,0-7.964-3.276-7.964-8.156c0-4.849,3.243-8.189,7.931-8.189
				c3.276,0,5.748,1.638,6.904,4.56c0.546,1.349,0.77,2.794,0.77,4.945H115.198z M121.524,160.499
				c-0.193-1.83-1.252-2.826-3.018-2.826c-1.766,0-2.922,0.996-3.276,2.826H121.524z"/>
			<path style="fill:#192833;" d="M133.954,170.132h-4.559v-21.418h4.559V170.132z"/>
			<path style="fill:#192833;" d="M142.272,154.622l-0.129,1.83c1.317-1.637,2.44-2.248,4.367-2.248
				c4.078,0,6.839,3.276,6.839,8.124c0,4.945-2.729,8.22-6.807,8.22c-1.702,0-2.89-0.481-4.174-1.669v6.165h-4.559v-20.423H142.272z
				 M142.208,162.361c0,2.761,1.285,4.495,3.34,4.495c1.991,0,3.307-1.734,3.307-4.431c0-2.794-1.252-4.528-3.339-4.528
				C143.493,157.898,142.208,159.632,142.208,162.361z"/>
			<path style="fill:#192833;" d="M160.996,155.939c1.285-1.22,2.505-1.734,4.11-1.734c1.573,0,2.986,0.578,3.982,1.67
				c0.995,1.092,1.381,2.409,1.381,4.72v9.537h-4.56v-8.702c0-1.445-0.128-2.023-0.514-2.569c-0.385-0.514-1.028-0.802-1.798-0.802
				s-1.509,0.289-1.991,0.771c-0.514,0.545-0.61,0.995-0.61,2.6v8.702h-4.559v-21.418h4.559V155.939z"/>
			<path style="fill:#192833;" d="M178.885,152.471h-4.559v-3.757h4.559V152.471z M178.885,170.132h-4.559v-15.51h4.559V170.132z"/>
			<path style="fill:#192833;" d="M182.772,159.503c0.289-3.564,2.505-5.298,6.872-5.298c2.344,0,4.142,0.546,5.363,1.605
				c1.124,0.996,1.541,2.248,1.541,4.528v7.129c0,1.669,0.064,1.894,0.578,2.665h-4.656c-0.193-0.546-0.193-0.642-0.353-1.22
				c-1.509,1.253-2.601,1.638-4.431,1.638c-3.436,0-5.716-1.927-5.716-4.849s1.83-4.431,6.165-5.138l2.472-0.417
				c1.028-0.16,1.381-0.417,1.381-1.06c0-0.867-0.899-1.413-2.376-1.413c-1.67,0-2.569,0.578-2.762,1.83H182.772z M192.116,162.746
				c-0.482,0.193-0.899,0.321-1.67,0.482l-1.638,0.353c-1.637,0.385-2.344,0.931-2.344,1.862c0,1.028,0.867,1.638,2.312,1.638
				c1.509,0,2.601-0.642,3.339-1.959V162.746z"/>
			<path style="fill:#192833;" d="M210.167,148.714h7.257c4.335,0,6.615,0.771,8.541,2.954c1.702,1.927,2.633,4.624,2.633,7.642
				c0,3.147-1.028,6.069-2.794,7.996c-1.863,1.991-4.239,2.826-8.22,2.826h-7.418V148.714z M218.227,166.022
				c2.183,0,3.5-0.61,4.399-2.087c0.706-1.188,1.06-2.665,1.06-4.528c0-1.798-0.321-3.211-1.028-4.431
				c-0.835-1.477-2.151-2.151-4.11-2.151h-3.564v13.198H218.227z"/>
			<path style="fill:#192833;" d="M236.404,152.471h-4.559v-3.757h4.559V152.471z M236.404,170.132h-4.559v-15.51h4.559V170.132z"/>
			<path style="fill:#192833;" d="M248.704,159.278c-0.193-1.156-1.124-1.766-2.633-1.766c-1.317,0-2.184,0.514-2.184,1.284
				c0,0.578,0.45,0.867,1.895,1.188l2.858,0.61c1.895,0.386,2.858,0.803,3.532,1.509c0.739,0.707,1.156,1.863,1.156,3.115
				c0,3.276-2.665,5.331-6.968,5.331c-4.303,0-6.968-2.023-7.225-5.458h4.271c0.257,1.477,1.22,2.151,3.051,2.151
				c1.445,0,2.376-0.578,2.376-1.509c0-0.739-0.514-1.124-1.734-1.413l-2.826-0.642c-3.404-0.738-4.72-1.991-4.72-4.464
				c0-3.115,2.472-5.01,6.615-5.01c3.982,0,6.39,1.799,6.807,5.073H248.704z"/>
			<path style="fill:#192833;" d="M264.28,158.026h-2.794v6.037c0,2.441,0.096,2.633,1.156,2.633h1.638v3.436h-2.794
				c-1.991,0-2.986-0.289-3.661-1.028c-0.706-0.77-0.899-1.605-0.899-4.013v-7.065h-2.184v-3.211h2.184v-4.913h4.56v4.913h2.794
				V158.026z"/>
			<path style="fill:#192833;" d="M271.668,154.622l-0.129,2.762c0.899-2.505,2.055-3.211,5.363-3.179v4.303
				c-0.546-0.064-0.77-0.064-1.156-0.064c-1.573,0-2.858,0.707-3.372,1.863c-0.45,1.027-0.61,2.472-0.61,5.458v4.367h-4.559v-15.51
				H271.668z"/>
			<path style="fill:#192833;" d="M283.775,152.471h-4.56v-3.757h4.56V152.471z M283.775,170.132h-4.56v-15.51h4.56V170.132z"/>
			<path style="fill:#192833;" d="M297.488,160.21c-0.257-1.478-1.284-2.312-2.825-2.312c-2.087,0-3.211,1.574-3.211,4.399
				c0,2.987,1.124,4.56,3.243,4.56c1.638,0,2.537-0.835,2.89-2.665l4.431,0.225c-0.643,3.918-3.34,6.133-7.45,6.133
				c-4.72,0-7.706-3.147-7.706-8.124c0-5.137,2.954-8.22,7.867-8.22c4.046,0,6.808,2.312,7.097,6.005H297.488z"/>
			<path style="fill:#192833;" d="M312.808,158.026h-2.794v6.037c0,2.441,0.096,2.633,1.156,2.633h1.638v3.436h-2.794
				c-1.991,0-2.986-0.289-3.661-1.028c-0.706-0.77-0.899-1.605-0.899-4.013v-7.065h-2.184v-3.211h2.184v-4.913h4.56v4.913h2.794
				V158.026z"/>
			<path style="fill:#192833;" d="M25.626,195.289l-1.349,4.303h-5.234l7.482-21.418h6.005l6.807,21.418h-5.459l-1.156-4.303H25.626
				z M29.415,182.959l-2.601,8.381h4.849L29.415,182.959z"/>
			<path style="fill:#192833;" d="M49.199,187.486h-2.794v6.037c0,2.441,0.096,2.633,1.156,2.633h1.638v3.436h-2.794
				c-1.991,0-2.986-0.289-3.661-1.027c-0.706-0.771-0.899-1.606-0.899-4.014v-7.065h-2.184v-3.211h2.184v-4.913h4.56v4.913h2.794
				V187.486z"/>
			<path style="fill:#192833;" d="M60.246,187.486h-2.794v6.037c0,2.441,0.096,2.633,1.156,2.633h1.638v3.436h-2.794
				c-1.991,0-2.986-0.289-3.661-1.027c-0.706-0.771-0.899-1.606-0.899-4.014v-7.065h-2.184v-3.211h2.184v-4.913h4.56v4.913h2.794
				V187.486z"/>
			<path style="fill:#192833;" d="M78.391,191.95c0,4.688-3.468,8.059-8.252,8.059c-4.817,0-8.22-3.372-8.22-8.188
				c0-4.785,3.404-8.156,8.22-8.156C75.052,183.665,78.391,187.004,78.391,191.95z M66.51,191.821c0,2.922,1.317,4.56,3.661,4.56
				c2.28,0,3.629-1.638,3.629-4.464c0-2.986-1.284-4.624-3.661-4.624C67.827,187.294,66.51,188.931,66.51,191.821z"/>
			<path style="fill:#192833;" d="M85.94,184.082l-0.129,2.762c0.899-2.505,2.055-3.211,5.363-3.179v4.303
				c-0.546-0.064-0.77-0.064-1.156-0.064c-1.573,0-2.858,0.707-3.372,1.863c-0.45,1.027-0.61,2.472-0.61,5.458v4.367h-4.559v-15.51
				H85.94z"/>
			<path style="fill:#192833;" d="M97.92,184.082v1.509c1.67-1.541,2.633-1.958,4.238-1.958c3.372,0,5.427,2.248,5.427,5.908v10.051
				h-4.56v-8.445c0-1.573-0.096-2.184-0.482-2.761c-0.385-0.578-1.06-0.899-1.862-0.899c-0.771,0-1.477,0.289-1.959,0.835
				c-0.514,0.578-0.674,1.22-0.674,2.569v8.702h-4.559v-15.51H97.92z"/>
			<path style="fill:#192833;" d="M115.263,193.169c0.289,2.12,1.541,3.276,3.5,3.276c1.22,0,2.087-0.417,2.697-1.381h4.624
				c-0.867,3.018-3.757,4.945-7.45,4.945c-4.785,0-7.964-3.276-7.964-8.156c0-4.849,3.243-8.189,7.931-8.189
				c3.276,0,5.748,1.638,6.904,4.56c0.546,1.349,0.77,2.794,0.77,4.945H115.263z M121.588,189.959
				c-0.193-1.83-1.252-2.826-3.018-2.826c-1.766,0-2.922,0.996-3.276,2.826H121.588z"/>
			<path style="fill:#192833;" d="M142.785,184.082l-5.395,15.638c-0.867,2.536-1.381,3.436-2.184,4.014
				c-0.738,0.546-1.766,0.771-3.468,0.771h-2.665v-3.436h1.349c1.606,0,2.344-0.61,2.344-1.959c0-0.545-0.032-0.642-0.578-1.99
				l-5.106-13.037h4.881l2.28,7.097c0.449,1.445,0.449,1.477,0.803,2.761l0.193,0.611c0.193-1.028,0.45-2.087,0.803-3.468
				l2.023-7.001H142.785z"/>
			<path style="fill:#192833;" d="M150.141,178.174v3.853c0,3.115-1.605,5.106-4.656,5.78v-1.798
				c1.445-0.546,2.312-1.799,2.376-3.34h-2.216v-4.495H150.141z"/>
			<path style="fill:#192833;" d="M162.28,188.738c-0.193-1.156-1.124-1.766-2.633-1.766c-1.317,0-2.184,0.514-2.184,1.284
				c0,0.578,0.45,0.867,1.895,1.188l2.858,0.61c1.895,0.386,2.858,0.803,3.532,1.509c0.739,0.707,1.156,1.863,1.156,3.115
				c0,3.276-2.665,5.331-6.968,5.331c-4.303,0-6.968-2.023-7.225-5.458h4.271c0.257,1.477,1.22,2.151,3.051,2.151
				c1.445,0,2.376-0.578,2.376-1.509c0-0.738-0.514-1.124-1.734-1.413l-2.826-0.642c-3.404-0.739-4.72-1.991-4.72-4.464
				c0-3.115,2.472-5.01,6.615-5.01c3.982,0,6.39,1.799,6.807,5.073H162.28z"/>
			<path style="fill:#192833;" d="M199.886,189.059c0,6.519-4.335,11.015-10.597,11.015c-6.358,0-10.629-4.496-10.629-11.207
				c0-3.5,1.188-6.519,3.307-8.445c1.959-1.798,4.464-2.73,7.289-2.73C195.711,177.692,199.886,182.156,199.886,189.059z
				 M183.702,188.867c0,4.464,2.087,7.129,5.587,7.129c3.436,0,5.555-2.665,5.555-7.032c0-4.528-2.055-7.192-5.587-7.192
				C185.789,181.771,183.702,184.435,183.702,188.867z"/>
			<path style="fill:#192833;" d="M211.096,187.486h-2.954v12.106h-4.56v-12.106h-2.151v-3.211h2.151v-1.124
				c0-3.339,1.638-4.977,5.009-4.977h2.505v3.628h-1.349c-1.06,0-1.605,0.482-1.605,1.381v1.092h2.954V187.486z"/>
			<path style="fill:#192833;" d="M222.015,187.486h-2.954v12.106h-4.56v-12.106h-2.151v-3.211h2.151v-1.124
				c0-3.339,1.638-4.977,5.009-4.977h2.505v3.628h-1.349c-1.06,0-1.605,0.482-1.605,1.381v1.092h2.954V187.486z"/>
			<path style="fill:#192833;" d="M228.792,181.931h-4.559v-3.757h4.559V181.931z M228.792,199.592h-4.559v-15.51h4.559V199.592z"/>
			<path style="fill:#192833;" d="M242.505,189.67c-0.257-1.478-1.284-2.312-2.825-2.312c-2.087,0-3.211,1.574-3.211,4.399
				c0,2.987,1.124,4.56,3.243,4.56c1.638,0,2.537-0.835,2.89-2.665l4.431,0.225c-0.643,3.918-3.34,6.133-7.45,6.133
				c-4.72,0-7.706-3.147-7.706-8.124c0-5.137,2.954-8.22,7.867-8.22c4.046,0,6.807,2.312,7.097,6.005H242.505z"/>
			<path style="fill:#192833;" d="M253.618,193.169c0.289,2.12,1.541,3.276,3.5,3.276c1.22,0,2.087-0.417,2.697-1.381h4.624
				c-0.867,3.018-3.757,4.945-7.45,4.945c-4.785,0-7.964-3.276-7.964-8.156c0-4.849,3.243-8.189,7.931-8.189
				c3.276,0,5.748,1.638,6.904,4.56c0.546,1.349,0.77,2.794,0.77,4.945H253.618z M259.944,189.959
				c-0.193-1.83-1.252-2.826-3.018-2.826c-1.766,0-2.922,0.996-3.276,2.826H259.944z"/>
		</g>
		<path style="fill:#F15A22;" d="M99.221,91.579c0-24.35-18.856-42.023-44.835-42.023H22.404c-0.693,0-1.255,0.562-1.255,1.255
			v82.005c0,0.693,0.562,1.255,1.255,1.255h31.982c25.979,0,44.835-17.772,44.835-42.258V91.579z M77.849,91.814v0.235
			c0,13.894-9.429,23.229-23.463,23.229H41.7V68.351h12.686C68.42,68.351,77.849,77.78,77.849,91.814z"/>
		<path style="fill:#192833;" d="M151.439,49.735c-0.197-0.463-0.652-0.764-1.155-0.764h-16.635c-0.503,0-0.958,0.301-1.155,0.764
			l-35.145,82.59c-0.165,0.387-0.124,0.832,0.108,1.183c0.232,0.351,0.626,0.563,1.047,0.563h18.393c0.51,0,0.97-0.309,1.162-0.781
			l7.179-17.611h32.989l7.179,17.611c0.193,0.472,0.652,0.781,1.162,0.781h18.861c0.421,0,0.815-0.212,1.047-0.563
			c0.232-0.351,0.273-0.796,0.108-1.183L151.439,49.735z M150.756,97.237h-18.049l9.024-22.027L150.756,97.237z"/>
		<path style="fill:#4D7DBF;" d="M230.31,48.151c-25.207,0-44.952,19.179-44.952,43.663v0.235c0,24.759,19.224,43.429,44.718,43.429
			c25.207,0,44.952-19.179,44.952-43.663v-0.235C275.028,66.821,255.803,48.151,230.31,48.151z M253.656,92.049
			c0,13.844-10.037,24.283-23.346,24.283c-13.443,0-23.58-10.54-23.58-24.518v-0.235c0-13.844,10.037-24.283,23.346-24.283
			c13.443,0,23.58,10.54,23.58,24.518V92.049z"/>
		<path style="fill:#192833;" d="M270.962,19.119H151.41v-5.891c0-0.51-0.413-0.923-0.923-0.923h-16.925
			c-0.51,0-0.923,0.413-0.923,0.923v5.891H22.57c-0.696,0-1.261,0.517-1.261,1.154v17.749c0,0.637,0.565,1.154,1.261,1.154h248.392
			c0.696,0,1.261-0.517,1.261-1.154V20.273C272.223,19.636,271.658,19.119,270.962,19.119z"/>
		<g>
			<path style="fill:#92A2AD;" d="M25.878,23.56c0-0.052,0.042-0.093,0.093-0.093h4.682c2.789,0,4.475,1.653,4.475,4.04v0.033
				c0,2.705-2.104,4.108-4.725,4.108h-1.953v3.451c0,0.031-0.025,0.056-0.056,0.056h-2.46c-0.031,0-0.056-0.025-0.056-0.056V23.56z
				 M30.486,29.361c1.286,0,2.037-0.769,2.037-1.771v-0.033c0-1.153-0.802-1.769-2.087-1.769h-1.987v3.573H30.486z"/>
			<path style="fill:#92A2AD;" d="M38.419,23.467h2.46c0.031,0,0.056,0.025,0.056,0.056v4.513c0,0.031,0.025,0.056,0.056,0.056h4.63
				c0.031,0,0.056-0.025,0.056-0.056v-4.513c0-0.031,0.025-0.056,0.056-0.056h2.459c0.031,0,0.056,0.025,0.056,0.056v11.576
				c0,0.031-0.025,0.056-0.056,0.056h-2.459c-0.031,0-0.056-0.025-0.056-0.056v-4.58c0-0.031-0.025-0.056-0.056-0.056h-4.63
				c-0.031,0-0.056,0.025-0.056,0.056v4.58c0,0.031-0.025,0.056-0.056,0.056h-2.46c-0.031,0-0.056-0.025-0.056-0.056V23.523
				C38.363,23.492,38.389,23.467,38.419,23.467z"/>
			<path style="fill:#92A2AD;" d="M52.441,23.467h2.46c0.031,0,0.056,0.025,0.056,0.056v9.237c0,0.031,0.025,0.056,0.056,0.056
				h5.771v2.338h-8.342c-0.031,0-0.056-0.025-0.056-0.056V23.523C52.385,23.492,52.41,23.467,52.441,23.467z"/>
		</g>
	</g>
</g>
</svg>
